<mxfile host="Electron" modified="2023-05-22T16:34:13.689Z" agent="Mozilla/5.0 (Windows NT 10.0; Win64; x64) AppleWebKit/537.36 (KHTML, like Gecko) draw.io/21.2.8 Chrome/112.0.5615.165 Electron/24.2.0 Safari/537.36" etag="N5VS9rey6tDmfAIXv4wZ" version="21.2.8" type="device">
  <diagram name="Pagina-1" id="KAcQSKa0nRq6Xz0T43Ng">
    <mxGraphModel dx="-1960" dy="613" grid="1" gridSize="10" guides="1" tooltips="1" connect="1" arrows="1" fold="1" page="1" pageScale="1" pageWidth="827" pageHeight="1169" math="0" shadow="0">
      <root>
        <mxCell id="0" />
        <mxCell id="1" parent="0" />
        <mxCell id="sHdHTutp8Dz2BRw6rNVO-1" value="Organizzatore" style="shape=umlActor;verticalLabelPosition=bottom;verticalAlign=top;html=1;outlineConnect=0;" parent="1" vertex="1">
          <mxGeometry x="3343" y="540" width="30" height="60" as="geometry" />
        </mxCell>
        <mxCell id="sHdHTutp8Dz2BRw6rNVO-2" value="Sistema" style="verticalAlign=top;align=center;spacingTop=8;spacingLeft=2;spacingRight=12;shape=cube;size=10;direction=south;fontStyle=4;html=1;whiteSpace=wrap;" parent="1" vertex="1">
          <mxGeometry x="3678" y="555" width="120" height="45" as="geometry" />
        </mxCell>
        <mxCell id="sHdHTutp8Dz2BRw6rNVO-3" value="" style="endArrow=none;dashed=1;html=1;rounded=0;entryX=0;entryY=0;entryDx=45;entryDy=65;entryPerimeter=0;" parent="1" target="sHdHTutp8Dz2BRw6rNVO-2" edge="1">
          <mxGeometry width="50" height="50" relative="1" as="geometry">
            <mxPoint x="3733" y="1690" as="sourcePoint" />
            <mxPoint x="3423" y="345" as="targetPoint" />
          </mxGeometry>
        </mxCell>
        <mxCell id="sHdHTutp8Dz2BRw6rNVO-4" value="Sistema" style="verticalAlign=top;align=center;spacingTop=8;spacingLeft=2;spacingRight=12;shape=cube;size=10;direction=south;fontStyle=4;html=1;whiteSpace=wrap;" parent="1" vertex="1">
          <mxGeometry x="3678" y="555" width="120" height="45" as="geometry" />
        </mxCell>
        <mxCell id="sHdHTutp8Dz2BRw6rNVO-5" value="" style="endArrow=none;dashed=1;html=1;rounded=0;" parent="1" edge="1">
          <mxGeometry width="50" height="50" relative="1" as="geometry">
            <mxPoint x="3360" y="1727.8260869565217" as="sourcePoint" />
            <mxPoint x="3358" y="600" as="targetPoint" />
          </mxGeometry>
        </mxCell>
        <mxCell id="sHdHTutp8Dz2BRw6rNVO-6" value="1. verificaStatoTurni()" style="endArrow=classic;html=1;rounded=0;" parent="1" edge="1">
          <mxGeometry width="50" height="50" relative="1" as="geometry">
            <mxPoint x="3368" y="650" as="sourcePoint" />
            <mxPoint x="3728" y="650" as="targetPoint" />
          </mxGeometry>
        </mxCell>
        <mxCell id="sHdHTutp8Dz2BRw6rNVO-7" value="viene fornito il calendario contenente i turni" style="endArrow=classic;html=1;rounded=0;dashed=1;" parent="1" edge="1">
          <mxGeometry width="50" height="50" relative="1" as="geometry">
            <mxPoint x="3728" y="676.52" as="sourcePoint" />
            <mxPoint x="3368" y="676.52" as="targetPoint" />
          </mxGeometry>
        </mxCell>
        <mxCell id="sHdHTutp8Dz2BRw6rNVO-8" value="2. creazioneEvento(dataInizio, dataFine, nomeEvento, luogo,&amp;nbsp;&lt;br&gt;numero partecipanti, cliente)" style="endArrow=classic;html=1;rounded=0;" parent="1" edge="1">
          <mxGeometry width="50" height="50" relative="1" as="geometry">
            <mxPoint x="3368" y="732.53" as="sourcePoint" />
            <mxPoint x="3728" y="732.53" as="targetPoint" />
            <mxPoint as="offset" />
          </mxGeometry>
        </mxCell>
        <mxCell id="sHdHTutp8Dz2BRw6rNVO-9" value="ok" style="endArrow=classic;html=1;rounded=0;dashed=1;" parent="1" edge="1">
          <mxGeometry width="50" height="50" relative="1" as="geometry">
            <mxPoint x="3723.5" y="754.43" as="sourcePoint" />
            <mxPoint x="3363.5" y="754.43" as="targetPoint" />
            <mxPoint as="offset" />
          </mxGeometry>
        </mxCell>
        <mxCell id="sHdHTutp8Dz2BRw6rNVO-10" value="3. aggiungiServizio(nome, orarioInizio, orarioFine, qtyPersonale, dettaglio)" style="endArrow=classic;html=1;rounded=0;" parent="1" edge="1">
          <mxGeometry width="50" height="50" relative="1" as="geometry">
            <mxPoint x="3385.5" y="1452.52" as="sourcePoint" />
            <mxPoint x="3745.5" y="1452.52" as="targetPoint" />
          </mxGeometry>
        </mxCell>
        <mxCell id="sHdHTutp8Dz2BRw6rNVO-11" value="verrà creato un servizio relativo all&#39;evento" style="endArrow=classic;html=1;rounded=0;dashed=1;" parent="1" edge="1">
          <mxGeometry width="50" height="50" relative="1" as="geometry">
            <mxPoint x="3740.5" y="1483" as="sourcePoint" />
            <mxPoint x="3380.5" y="1483" as="targetPoint" />
          </mxGeometry>
        </mxCell>
        <mxCell id="sHdHTutp8Dz2BRw6rNVO-12" value="LOOP" style="shape=umlFrame;whiteSpace=wrap;html=1;pointerEvents=0;fillColor=#dae8fc;strokeColor=#6c8ebf;width=35;height=15;strokeWidth=2;" parent="1" vertex="1">
          <mxGeometry x="3360.5" y="1438.5" width="400" height="62" as="geometry" />
        </mxCell>
        <mxCell id="sHdHTutp8Dz2BRw6rNVO-13" value="4. sceltaChef(chef)" style="endArrow=classic;html=1;rounded=0;" parent="1" edge="1">
          <mxGeometry width="50" height="50" relative="1" as="geometry">
            <mxPoint x="3380.5" y="1515" as="sourcePoint" />
            <mxPoint x="3740.5" y="1515" as="targetPoint" />
          </mxGeometry>
        </mxCell>
        <mxCell id="sHdHTutp8Dz2BRw6rNVO-14" value="verrà assegnato uno chef al relativo evento" style="endArrow=classic;html=1;rounded=0;dashed=1;" parent="1" edge="1">
          <mxGeometry width="50" height="50" relative="1" as="geometry">
            <mxPoint x="3738" y="1540.48" as="sourcePoint" />
            <mxPoint x="3378" y="1540.48" as="targetPoint" />
          </mxGeometry>
        </mxCell>
        <mxCell id="sHdHTutp8Dz2BRw6rNVO-15" value="LOOP" style="shape=umlFrame;whiteSpace=wrap;html=1;pointerEvents=0;fillColor=#dae8fc;strokeColor=#6c8ebf;width=43;height=15;strokeWidth=2;" parent="1" vertex="1">
          <mxGeometry x="3343" y="1423" width="435" height="130" as="geometry" />
        </mxCell>
        <mxCell id="sHdHTutp8Dz2BRw6rNVO-16" value="6. assegnamentoPersonale(Turno, Servizio, Personale, ruolo)" style="endArrow=classic;html=1;rounded=0;" parent="1" edge="1">
          <mxGeometry width="50" height="50" relative="1" as="geometry">
            <mxPoint x="3381.75" y="1646.78" as="sourcePoint" />
            <mxPoint x="3741.75" y="1646.78" as="targetPoint" />
            <mxPoint as="offset" />
          </mxGeometry>
        </mxCell>
        <mxCell id="sHdHTutp8Dz2BRw6rNVO-17" value="verrà assegnato il numero necessario di personale all&#39;evento" style="endArrow=classic;html=1;rounded=0;dashed=1;" parent="1" edge="1">
          <mxGeometry width="50" height="50" relative="1" as="geometry">
            <mxPoint x="3739.25" y="1672.26" as="sourcePoint" />
            <mxPoint x="3379.25" y="1672.26" as="targetPoint" />
          </mxGeometry>
        </mxCell>
        <mxCell id="sHdHTutp8Dz2BRw6rNVO-18" value="7. aggiuntaNota(Servizio?,Evento?, descrizione)" style="endArrow=classic;html=1;rounded=0;" parent="1" edge="1">
          <mxGeometry width="50" height="50" relative="1" as="geometry">
            <mxPoint x="3381.75" y="1698.57" as="sourcePoint" />
            <mxPoint x="3741.75" y="1698.57" as="targetPoint" />
            <mxPoint as="offset" />
          </mxGeometry>
        </mxCell>
        <mxCell id="sHdHTutp8Dz2BRw6rNVO-19" value="ok" style="endArrow=classic;html=1;rounded=0;dashed=1;" parent="1" edge="1">
          <mxGeometry width="50" height="50" relative="1" as="geometry">
            <mxPoint x="3739.25" y="1724.05" as="sourcePoint" />
            <mxPoint x="3379.25" y="1724.05" as="targetPoint" />
          </mxGeometry>
        </mxCell>
        <mxCell id="sHdHTutp8Dz2BRw6rNVO-20" value="LOOP" style="shape=umlFrame;whiteSpace=wrap;html=1;pointerEvents=0;fillColor=#dae8fc;strokeColor=#6c8ebf;width=60;height=20;strokeWidth=2;" parent="1" vertex="1">
          <mxGeometry x="3308" y="1420" width="470" height="320" as="geometry" />
        </mxCell>
        <mxCell id="sHdHTutp8Dz2BRw6rNVO-21" value="OPT" style="shape=umlFrame;whiteSpace=wrap;html=1;pointerEvents=0;fillColor=#CCCCCC;strokeColor=#999999;width=30;height=15;" parent="1" vertex="1">
          <mxGeometry x="3365.5" y="1683" width="390" height="50" as="geometry" />
        </mxCell>
        <mxCell id="sHdHTutp8Dz2BRw6rNVO-22" value="LOOP" style="shape=umlFrame;whiteSpace=wrap;html=1;pointerEvents=0;fillColor=#CCCCCC;strokeColor=#999999;width=33;height=15;strokeWidth=2;" parent="1" vertex="1">
          <mxGeometry x="3343" y="1623" width="432.5" height="60" as="geometry" />
        </mxCell>
        <mxCell id="sHdHTutp8Dz2BRw6rNVO-23" value="estensione passo 2" style="text;html=1;align=center;verticalAlign=middle;resizable=0;points=[];autosize=1;strokeColor=none;fillColor=none;" parent="1" vertex="1">
          <mxGeometry x="3478" y="480" width="130" height="30" as="geometry" />
        </mxCell>
        <mxCell id="sHdHTutp8Dz2BRw6rNVO-24" value="LOOP" style="shape=umlFrame;whiteSpace=wrap;html=1;pointerEvents=0;fillColor=#dae8fc;strokeColor=#6c8ebf;width=43;height=15;strokeWidth=2;" parent="1" vertex="1">
          <mxGeometry x="3341.75" y="1423" width="435" height="130" as="geometry" />
        </mxCell>
        <mxCell id="sHdHTutp8Dz2BRw6rNVO-25" value="LOOP" style="shape=umlFrame;whiteSpace=wrap;html=1;pointerEvents=0;fillColor=#dae8fc;strokeColor=#6c8ebf;width=35;height=15;strokeWidth=2;" parent="1" vertex="1">
          <mxGeometry x="3359.25" y="1438.5" width="400" height="62" as="geometry" />
        </mxCell>
        <mxCell id="sHdHTutp8Dz2BRw6rNVO-26" value="LOOP" style="shape=umlFrame;whiteSpace=wrap;html=1;pointerEvents=0;fillColor=#CCCCCC;strokeColor=#999999;width=43;height=15;strokeWidth=2;" parent="1" vertex="1">
          <mxGeometry x="3340.5" y="1423" width="435" height="130" as="geometry" />
        </mxCell>
        <mxCell id="sHdHTutp8Dz2BRw6rNVO-27" value="LOOP" style="shape=umlFrame;whiteSpace=wrap;html=1;pointerEvents=0;fillColor=#CCCCCC;strokeColor=#999999;width=35;height=15;strokeWidth=2;" parent="1" vertex="1">
          <mxGeometry x="3358" y="1438.5" width="400" height="62" as="geometry" />
        </mxCell>
        <mxCell id="sHdHTutp8Dz2BRw6rNVO-28" value="2.a eliminazioneEvento(Evento)" style="endArrow=classic;html=1;rounded=0;" parent="1" edge="1">
          <mxGeometry width="50" height="50" relative="1" as="geometry">
            <mxPoint x="3363.5" y="827" as="sourcePoint" />
            <mxPoint x="3723.5" y="827" as="targetPoint" />
          </mxGeometry>
        </mxCell>
        <mxCell id="sHdHTutp8Dz2BRw6rNVO-29" value="ok" style="endArrow=classic;html=1;rounded=0;dashed=1;" parent="1" edge="1">
          <mxGeometry width="50" height="50" relative="1" as="geometry">
            <mxPoint x="3723" y="839.6199999999999" as="sourcePoint" />
            <mxPoint x="3363" y="839.6199999999999" as="targetPoint" />
          </mxGeometry>
        </mxCell>
        <mxCell id="sHdHTutp8Dz2BRw6rNVO-30" value="2.b annullamentoEvento(Evento)" style="endArrow=classic;html=1;rounded=0;" parent="1" edge="1">
          <mxGeometry width="50" height="50" relative="1" as="geometry">
            <mxPoint x="3363" y="941.31" as="sourcePoint" />
            <mxPoint x="3723" y="941.31" as="targetPoint" />
          </mxGeometry>
        </mxCell>
        <mxCell id="sHdHTutp8Dz2BRw6rNVO-31" value="ok" style="endArrow=classic;html=1;rounded=0;dashed=1;" parent="1" edge="1">
          <mxGeometry width="50" height="50" relative="1" as="geometry">
            <mxPoint x="3723" y="967.8299999999999" as="sourcePoint" />
            <mxPoint x="3363" y="967.8299999999999" as="targetPoint" />
          </mxGeometry>
        </mxCell>
        <mxCell id="sHdHTutp8Dz2BRw6rNVO-32" value="2.c terminazioneEvento(Evento)" style="endArrow=classic;html=1;rounded=0;" parent="1" edge="1">
          <mxGeometry width="50" height="50" relative="1" as="geometry">
            <mxPoint x="3359.25" y="1043.75" as="sourcePoint" />
            <mxPoint x="3719.25" y="1043.75" as="targetPoint" />
          </mxGeometry>
        </mxCell>
        <mxCell id="sHdHTutp8Dz2BRw6rNVO-33" value="ok" style="endArrow=classic;html=1;rounded=0;dashed=1;" parent="1" edge="1">
          <mxGeometry width="50" height="50" relative="1" as="geometry">
            <mxPoint x="3719.25" y="1060" as="sourcePoint" />
            <mxPoint x="3359.25" y="1060" as="targetPoint" />
          </mxGeometry>
        </mxCell>
        <mxCell id="sHdHTutp8Dz2BRw6rNVO-34" value="2.d aperturaEvento(Evento)" style="endArrow=classic;html=1;rounded=0;" parent="1" edge="1">
          <mxGeometry width="50" height="50" relative="1" as="geometry">
            <mxPoint x="3364" y="1125.6599999999999" as="sourcePoint" />
            <mxPoint x="3724" y="1125.6599999999999" as="targetPoint" />
            <mxPoint as="offset" />
          </mxGeometry>
        </mxCell>
        <mxCell id="sHdHTutp8Dz2BRw6rNVO-35" value="ok" style="endArrow=classic;html=1;rounded=0;dashed=1;" parent="1" edge="1">
          <mxGeometry x="-0.0444" width="50" height="50" relative="1" as="geometry">
            <mxPoint x="3723" y="1156.2199999999998" as="sourcePoint" />
            <mxPoint x="3363" y="1156.2199999999998" as="targetPoint" />
            <mxPoint as="offset" />
          </mxGeometry>
        </mxCell>
        <mxCell id="sHdHTutp8Dz2BRw6rNVO-36" value="2.e modificaEvento(Evento, dataInizio?, dataFine?, nomeEvento?, &lt;br&gt;luogo?, numeroPartecipanti?, cliente?)" style="endArrow=classic;html=1;rounded=0;" parent="1" edge="1">
          <mxGeometry width="50" height="50" relative="1" as="geometry">
            <mxPoint x="3363" y="1241.75" as="sourcePoint" />
            <mxPoint x="3723" y="1241.75" as="targetPoint" />
            <mxPoint as="offset" />
          </mxGeometry>
        </mxCell>
        <mxCell id="sHdHTutp8Dz2BRw6rNVO-37" value="ok" style="endArrow=classic;html=1;rounded=0;dashed=1;" parent="1" edge="1">
          <mxGeometry width="50" height="50" relative="1" as="geometry">
            <mxPoint x="3718" y="1263.3899999999999" as="sourcePoint" />
            <mxPoint x="3358" y="1263.3899999999999" as="targetPoint" />
          </mxGeometry>
        </mxCell>
        <mxCell id="sHdHTutp8Dz2BRw6rNVO-38" value="2.d.1.a l&#39;organizzatore non gestisce l&#39;evento" style="endArrow=classic;html=1;rounded=0;dashed=1;" parent="1" edge="1">
          <mxGeometry width="50" height="50" relative="1" as="geometry">
            <mxPoint x="3724" y="1204.1599999999999" as="sourcePoint" />
            <mxPoint x="3364" y="1204.1599999999999" as="targetPoint" />
          </mxGeometry>
        </mxCell>
        <mxCell id="sHdHTutp8Dz2BRw6rNVO-39" value="" style="shape=image;html=1;verticalAlign=top;verticalLabelPosition=bottom;labelBackgroundColor=#ffffff;imageAspect=0;aspect=fixed;image=https://cdn0.iconfinder.com/data/icons/evericons-16px/16/x-128.png" parent="1" vertex="1">
          <mxGeometry x="3714.5" y="1190" width="30" height="30" as="geometry" />
        </mxCell>
        <mxCell id="sHdHTutp8Dz2BRw6rNVO-40" value="ALT" style="shape=umlFrame;whiteSpace=wrap;html=1;pointerEvents=0;fillColor=#e51400;strokeColor=#B20000;width=35;height=15;swimlaneFillColor=none;fillStyle=auto;fontColor=#ffffff;" parent="1" vertex="1">
          <mxGeometry x="3350" y="710" width="387" height="100" as="geometry" />
        </mxCell>
        <mxCell id="sHdHTutp8Dz2BRw6rNVO-41" value="2.a.1 La data d’inizio specificata è già passata" style="endArrow=classic;html=1;rounded=0;dashed=1;" parent="1" edge="1">
          <mxGeometry width="50" height="50" relative="1" as="geometry">
            <mxPoint x="3723" y="784.43" as="sourcePoint" />
            <mxPoint x="3363" y="784.43" as="targetPoint" />
          </mxGeometry>
        </mxCell>
        <mxCell id="sHdHTutp8Dz2BRw6rNVO-42" value="" style="endArrow=none;dashed=1;html=1;dashPattern=1 3;strokeWidth=2;rounded=0;exitX=-0.006;exitY=0.613;exitDx=0;exitDy=0;exitPerimeter=0;fillColor=#e51400;strokeColor=#B20000;" parent="1" edge="1">
          <mxGeometry width="50" height="50" relative="1" as="geometry">
            <mxPoint x="3350" y="769.5" as="sourcePoint" />
            <mxPoint x="3736" y="769.5" as="targetPoint" />
          </mxGeometry>
        </mxCell>
        <mxCell id="sHdHTutp8Dz2BRw6rNVO-43" value="ALT" style="shape=umlFrame;whiteSpace=wrap;html=1;pointerEvents=0;fillColor=#e51400;strokeColor=#B20000;width=35;height=15;swimlaneFillColor=none;fillStyle=auto;fontColor=#ffffff;" parent="1" vertex="1">
          <mxGeometry x="3349.5" y="810" width="387" height="110" as="geometry" />
        </mxCell>
        <mxCell id="sHdHTutp8Dz2BRw6rNVO-44" value="2.a.1.a l&#39;evento è già terminato" style="endArrow=classic;html=1;rounded=0;dashed=1;" parent="1" edge="1">
          <mxGeometry width="50" height="50" relative="1" as="geometry">
            <mxPoint x="3722" y="857.5" as="sourcePoint" />
            <mxPoint x="3364" y="857.5" as="targetPoint" />
          </mxGeometry>
        </mxCell>
        <mxCell id="sHdHTutp8Dz2BRw6rNVO-45" value="" style="endArrow=none;dashed=1;html=1;dashPattern=1 3;strokeWidth=2;rounded=0;exitX=-0.006;exitY=0.613;exitDx=0;exitDy=0;exitPerimeter=0;fillColor=#e51400;strokeColor=#B20000;" parent="1" edge="1">
          <mxGeometry width="50" height="50" relative="1" as="geometry">
            <mxPoint x="3349.5" y="849.6199999999999" as="sourcePoint" />
            <mxPoint x="3735.5" y="849.6199999999999" as="targetPoint" />
          </mxGeometry>
        </mxCell>
        <mxCell id="sHdHTutp8Dz2BRw6rNVO-46" value="2.b.1.a l&#39;evento è già terminato" style="endArrow=classic;html=1;rounded=0;dashed=1;" parent="1" edge="1">
          <mxGeometry width="50" height="50" relative="1" as="geometry">
            <mxPoint x="3722" y="1006.64" as="sourcePoint" />
            <mxPoint x="3364" y="1006.64" as="targetPoint" />
          </mxGeometry>
        </mxCell>
        <mxCell id="sHdHTutp8Dz2BRw6rNVO-47" value="ALT" style="shape=umlFrame;whiteSpace=wrap;html=1;pointerEvents=0;fillColor=#e51400;strokeColor=#B20000;width=35;height=15;swimlaneFillColor=none;fillStyle=auto;fontColor=#ffffff;" parent="1" vertex="1">
          <mxGeometry x="3349.5" y="920" width="387" height="110" as="geometry" />
        </mxCell>
        <mxCell id="sHdHTutp8Dz2BRw6rNVO-48" value="" style="endArrow=none;dashed=1;html=1;dashPattern=1 3;strokeWidth=2;rounded=0;exitX=-0.006;exitY=0.613;exitDx=0;exitDy=0;exitPerimeter=0;fillColor=#e51400;strokeColor=#B20000;" parent="1" edge="1">
          <mxGeometry width="50" height="50" relative="1" as="geometry">
            <mxPoint x="3349.5" y="986.29" as="sourcePoint" />
            <mxPoint x="3735.5" y="986.29" as="targetPoint" />
          </mxGeometry>
        </mxCell>
        <mxCell id="sHdHTutp8Dz2BRw6rNVO-49" value="ALT" style="shape=umlFrame;whiteSpace=wrap;html=1;pointerEvents=0;fillColor=#e51400;strokeColor=#B20000;width=35;height=15;swimlaneFillColor=none;fillStyle=auto;fontColor=#ffffff;" parent="1" vertex="1">
          <mxGeometry x="3350" y="1110" width="387" height="110" as="geometry" />
        </mxCell>
        <mxCell id="sHdHTutp8Dz2BRw6rNVO-50" value="" style="endArrow=none;dashed=1;html=1;dashPattern=1 3;strokeWidth=2;rounded=0;exitX=-0.006;exitY=0.613;exitDx=0;exitDy=0;exitPerimeter=0;fillColor=#e51400;strokeColor=#B20000;" parent="1" edge="1">
          <mxGeometry width="50" height="50" relative="1" as="geometry">
            <mxPoint x="3351" y="1179.2299999999998" as="sourcePoint" />
            <mxPoint x="3737" y="1179.2299999999998" as="targetPoint" />
          </mxGeometry>
        </mxCell>
        <mxCell id="sHdHTutp8Dz2BRw6rNVO-51" value="2.e.1.a La data d’inizio non è modificabile se i lavori sono iniziati." style="endArrow=classic;html=1;rounded=0;dashed=1;" parent="1" edge="1">
          <mxGeometry width="50" height="50" relative="1" as="geometry">
            <mxPoint x="3723.5" y="1300" as="sourcePoint" />
            <mxPoint x="3363.5" y="1300" as="targetPoint" />
          </mxGeometry>
        </mxCell>
        <mxCell id="sHdHTutp8Dz2BRw6rNVO-52" value="ALT" style="shape=umlFrame;whiteSpace=wrap;html=1;pointerEvents=0;fillColor=#e51400;strokeColor=#B20000;width=35;height=15;swimlaneFillColor=none;fillStyle=auto;fontColor=#ffffff;" parent="1" vertex="1">
          <mxGeometry x="3350" y="1220" width="387" height="190" as="geometry" />
        </mxCell>
        <mxCell id="sHdHTutp8Dz2BRw6rNVO-53" value="" style="endArrow=none;dashed=1;html=1;dashPattern=1 3;strokeWidth=2;rounded=0;exitX=-0.006;exitY=0.613;exitDx=0;exitDy=0;exitPerimeter=0;fillColor=#e51400;strokeColor=#B20000;entryX=1.008;entryY=0.307;entryDx=0;entryDy=0;entryPerimeter=0;" parent="1" target="sHdHTutp8Dz2BRw6rNVO-52" edge="1">
          <mxGeometry width="50" height="50" relative="1" as="geometry">
            <mxPoint x="3344.5" y="1281.4599999999998" as="sourcePoint" />
            <mxPoint x="3730.5" y="1281.4599999999998" as="targetPoint" />
          </mxGeometry>
        </mxCell>
        <mxCell id="sHdHTutp8Dz2BRw6rNVO-54" value="" style="endArrow=none;dashed=1;html=1;dashPattern=1 3;strokeWidth=2;rounded=0;exitX=-0.006;exitY=0.613;exitDx=0;exitDy=0;exitPerimeter=0;fillColor=#e51400;strokeColor=#B20000;" parent="1" edge="1">
          <mxGeometry width="50" height="50" relative="1" as="geometry">
            <mxPoint x="3352.5" y="1318.4599999999998" as="sourcePoint" />
            <mxPoint x="3738.5" y="1318.4599999999998" as="targetPoint" />
          </mxGeometry>
        </mxCell>
        <mxCell id="sHdHTutp8Dz2BRw6rNVO-55" value="&lt;font style=&quot;font-size: 9px;&quot;&gt;2.e.1.b l&#39;evento è già stato confermato e viene modificato il numero &lt;br&gt;di partecipanti viene imposta una penale se il nuovo &lt;br&gt;numero di partecipanti sfora del 30% rispetto al valore di partenza&lt;/font&gt;" style="endArrow=classic;html=1;rounded=0;dashed=1;" parent="1" edge="1">
          <mxGeometry width="50" height="50" relative="1" as="geometry">
            <mxPoint x="3725.5" y="1347.4099999999999" as="sourcePoint" />
            <mxPoint x="3365.5" y="1347.4099999999999" as="targetPoint" />
            <mxPoint as="offset" />
          </mxGeometry>
        </mxCell>
        <mxCell id="sHdHTutp8Dz2BRw6rNVO-56" value="" style="endArrow=none;dashed=1;html=1;dashPattern=1 3;strokeWidth=2;rounded=0;exitX=-0.006;exitY=0.613;exitDx=0;exitDy=0;exitPerimeter=0;fillColor=#e51400;strokeColor=#B20000;" parent="1" edge="1">
          <mxGeometry width="50" height="50" relative="1" as="geometry">
            <mxPoint x="3348.5" y="869.9999999999999" as="sourcePoint" />
            <mxPoint x="3734.5" y="869.9999999999999" as="targetPoint" />
          </mxGeometry>
        </mxCell>
        <mxCell id="sHdHTutp8Dz2BRw6rNVO-57" value="2.a.1.b l&#39;evento è in corso" style="endArrow=classic;html=1;rounded=0;dashed=1;" parent="1" edge="1">
          <mxGeometry x="0.0009" width="50" height="50" relative="1" as="geometry">
            <mxPoint x="3720.5" y="883.75" as="sourcePoint" />
            <mxPoint x="3362.5" y="883.75" as="targetPoint" />
            <mxPoint as="offset" />
          </mxGeometry>
        </mxCell>
        <mxCell id="sHdHTutp8Dz2BRw6rNVO-58" value="ALT" style="shape=umlFrame;whiteSpace=wrap;html=1;pointerEvents=0;fillColor=#e51400;strokeColor=#B20000;width=35;height=15;swimlaneFillColor=none;fillStyle=auto;fontColor=#ffffff;" parent="1" vertex="1">
          <mxGeometry x="3348" y="1030" width="387" height="80" as="geometry" />
        </mxCell>
        <mxCell id="sHdHTutp8Dz2BRw6rNVO-59" value="2.c.1.a l&#39;evento è già terminato/annullato/eliminato" style="endArrow=classic;html=1;rounded=0;dashed=1;" parent="1" edge="1">
          <mxGeometry width="50" height="50" relative="1" as="geometry">
            <mxPoint x="3720.5" y="1093.59" as="sourcePoint" />
            <mxPoint x="3362.5" y="1093.59" as="targetPoint" />
          </mxGeometry>
        </mxCell>
        <mxCell id="sHdHTutp8Dz2BRw6rNVO-60" value="" style="endArrow=none;dashed=1;html=1;dashPattern=1 3;strokeWidth=2;rounded=0;exitX=-0.006;exitY=0.613;exitDx=0;exitDy=0;exitPerimeter=0;fillColor=#e51400;strokeColor=#B20000;" parent="1" edge="1">
          <mxGeometry width="50" height="50" relative="1" as="geometry">
            <mxPoint x="3348" y="1073.24" as="sourcePoint" />
            <mxPoint x="3734" y="1073.24" as="targetPoint" />
          </mxGeometry>
        </mxCell>
        <mxCell id="sHdHTutp8Dz2BRw6rNVO-61" value="" style="endArrow=none;dashed=1;html=1;dashPattern=1 3;strokeWidth=2;rounded=0;exitX=-0.006;exitY=0.613;exitDx=0;exitDy=0;exitPerimeter=0;fillColor=#e51400;strokeColor=#B20000;" parent="1" edge="1">
          <mxGeometry width="50" height="50" relative="1" as="geometry">
            <mxPoint x="3350.5" y="1379.8199999999997" as="sourcePoint" />
            <mxPoint x="3736.5" y="1379.8199999999997" as="targetPoint" />
          </mxGeometry>
        </mxCell>
        <mxCell id="sHdHTutp8Dz2BRw6rNVO-62" value="2.e.1.c la data di inizio è precedente alla data attuale" style="endArrow=classic;html=1;rounded=0;dashed=1;" parent="1" edge="1">
          <mxGeometry width="50" height="50" relative="1" as="geometry">
            <mxPoint x="3722" y="1400" as="sourcePoint" />
            <mxPoint x="3362" y="1400" as="targetPoint" />
            <mxPoint as="offset" />
          </mxGeometry>
        </mxCell>
        <mxCell id="sHdHTutp8Dz2BRw6rNVO-63" value="" style="endArrow=none;dashed=1;html=1;dashPattern=1 3;strokeWidth=2;rounded=0;exitX=-0.006;exitY=0.613;exitDx=0;exitDy=0;exitPerimeter=0;fillColor=#e51400;strokeColor=#B20000;" parent="1" edge="1">
          <mxGeometry width="50" height="50" relative="1" as="geometry">
            <mxPoint x="3348.5" y="889.9999999999999" as="sourcePoint" />
            <mxPoint x="3734.5" y="889.9999999999999" as="targetPoint" />
          </mxGeometry>
        </mxCell>
        <mxCell id="sHdHTutp8Dz2BRw6rNVO-64" value="2.a.1.c l&#39;organizzatore non gestisce l&#39;evento" style="endArrow=classic;html=1;rounded=0;dashed=1;" parent="1" edge="1">
          <mxGeometry x="0.0009" width="50" height="50" relative="1" as="geometry">
            <mxPoint x="3720.5" y="903.75" as="sourcePoint" />
            <mxPoint x="3362.5" y="903.75" as="targetPoint" />
            <mxPoint as="offset" />
          </mxGeometry>
        </mxCell>
        <mxCell id="sHdHTutp8Dz2BRw6rNVO-67" value="5. approvazionemenu(servizio)" style="endArrow=classic;html=1;rounded=0;" parent="1" edge="1">
          <mxGeometry width="50" height="50" relative="1" as="geometry">
            <mxPoint x="3368" y="1573.52" as="sourcePoint" />
            <mxPoint x="3728" y="1573.52" as="targetPoint" />
          </mxGeometry>
        </mxCell>
        <mxCell id="sHdHTutp8Dz2BRw6rNVO-68" value="ok" style="endArrow=classic;html=1;rounded=0;dashed=1;" parent="1" edge="1">
          <mxGeometry width="50" height="50" relative="1" as="geometry">
            <mxPoint x="3725.5" y="1599" as="sourcePoint" />
            <mxPoint x="3365.5" y="1599" as="targetPoint" />
          </mxGeometry>
        </mxCell>
        <mxCell id="R0OoQi4E8ASWG41FeoUv-1" value="" style="shape=image;html=1;verticalAlign=top;verticalLabelPosition=bottom;labelBackgroundColor=#ffffff;imageAspect=0;aspect=fixed;image=https://cdn0.iconfinder.com/data/icons/evericons-16px/16/x-128.png" vertex="1" parent="1">
          <mxGeometry x="3712.5" y="1079" width="30" height="30" as="geometry" />
        </mxCell>
        <mxCell id="R0OoQi4E8ASWG41FeoUv-2" value="" style="shape=image;html=1;verticalAlign=top;verticalLabelPosition=bottom;labelBackgroundColor=#ffffff;imageAspect=0;aspect=fixed;image=https://cdn0.iconfinder.com/data/icons/evericons-16px/16/x-128.png" vertex="1" parent="1">
          <mxGeometry x="3712.5" y="993" width="30" height="30" as="geometry" />
        </mxCell>
        <mxCell id="R0OoQi4E8ASWG41FeoUv-5" value="" style="shape=image;html=1;verticalAlign=top;verticalLabelPosition=bottom;labelBackgroundColor=#ffffff;imageAspect=0;aspect=fixed;image=https://cdn0.iconfinder.com/data/icons/evericons-16px/16/x-128.png" vertex="1" parent="1">
          <mxGeometry x="3712.5" y="889" width="30" height="30" as="geometry" />
        </mxCell>
        <mxCell id="R0OoQi4E8ASWG41FeoUv-6" value="" style="shape=image;html=1;verticalAlign=top;verticalLabelPosition=bottom;labelBackgroundColor=#ffffff;imageAspect=0;aspect=fixed;image=https://cdn0.iconfinder.com/data/icons/evericons-16px/16/x-128.png" vertex="1" parent="1">
          <mxGeometry x="3712.5" y="867" width="30" height="30" as="geometry" />
        </mxCell>
        <mxCell id="R0OoQi4E8ASWG41FeoUv-7" value="" style="shape=image;html=1;verticalAlign=top;verticalLabelPosition=bottom;labelBackgroundColor=#ffffff;imageAspect=0;aspect=fixed;image=https://cdn0.iconfinder.com/data/icons/evericons-16px/16/x-128.png" vertex="1" parent="1">
          <mxGeometry x="3712.5" y="842" width="30" height="30" as="geometry" />
        </mxCell>
      </root>
    </mxGraphModel>
  </diagram>
</mxfile>
